<mxfile host="65bd71144e">
    <diagram name="ページ1" id="F3GOq955pltwdBE5NGUQ">
        <mxGraphModel dx="671" dy="277" grid="1" gridSize="10" guides="1" tooltips="1" connect="1" arrows="1" fold="1" page="1" pageScale="1" pageWidth="827" pageHeight="1169" math="1" shadow="0">
            <root>
                <mxCell id="0"/>
                <mxCell id="1" parent="0"/>
                <mxCell id="GLiHE9NnTcTnetMdxVj1-1" value="" style="endArrow=classic;html=1;rounded=0;endFill=1;" parent="1" edge="1">
                    <mxGeometry width="50" height="50" relative="1" as="geometry">
                        <mxPoint x="110" y="320" as="sourcePoint"/>
                        <mxPoint x="440" y="320" as="targetPoint"/>
                    </mxGeometry>
                </mxCell>
                <mxCell id="GLiHE9NnTcTnetMdxVj1-2" value="" style="endArrow=classic;html=1;rounded=0;endFill=1;" parent="1" edge="1">
                    <mxGeometry width="50" height="50" relative="1" as="geometry">
                        <mxPoint x="120" y="330" as="sourcePoint"/>
                        <mxPoint x="120" y="80" as="targetPoint"/>
                    </mxGeometry>
                </mxCell>
                <mxCell id="GLiHE9NnTcTnetMdxVj1-3" value="$$k$$" style="text;html=1;align=center;verticalAlign=middle;resizable=0;points=[];autosize=1;strokeColor=none;fillColor=none;fontSize=17;" parent="1" vertex="1">
                    <mxGeometry x="420" y="306" width="70" height="30" as="geometry"/>
                </mxCell>
                <mxCell id="GLiHE9NnTcTnetMdxVj1-4" value="$$T_{\mathrm{cons}}$$" style="text;html=1;align=center;verticalAlign=middle;resizable=0;points=[];autosize=1;strokeColor=none;fillColor=none;fontSize=17;" parent="1" vertex="1">
                    <mxGeometry x="21" y="48" width="200" height="30" as="geometry"/>
                </mxCell>
                <mxCell id="GLiHE9NnTcTnetMdxVj1-8" value="$$n/(\log n)^2$$" style="text;html=1;align=center;verticalAlign=middle;resizable=0;points=[];autosize=1;strokeColor=none;fillColor=none;fontSize=17;" parent="1" vertex="1">
                    <mxGeometry x="305" y="320" width="150" height="30" as="geometry"/>
                </mxCell>
                <mxCell id="GLiHE9NnTcTnetMdxVj1-13" value="" style="endArrow=none;html=1;rounded=0;fillColor=#f8cecc;strokeColor=#FF0000;" parent="1" target="GLiHE9NnTcTnetMdxVj1-17" edge="1">
                    <mxGeometry width="50" height="50" relative="1" as="geometry">
                        <mxPoint x="120" y="320" as="sourcePoint"/>
                        <mxPoint x="210" y="230" as="targetPoint"/>
                    </mxGeometry>
                </mxCell>
                <mxCell id="13" style="edgeStyle=none;html=1;strokeColor=#4D4D4D;fontColor=#0000FF;endArrow=none;endFill=0;dashed=1;" parent="1" source="GLiHE9NnTcTnetMdxVj1-17" edge="1">
                    <mxGeometry relative="1" as="geometry">
                        <mxPoint x="380" y="320" as="targetPoint"/>
                    </mxGeometry>
                </mxCell>
                <mxCell id="GLiHE9NnTcTnetMdxVj1-17" value="" style="shape=waypoint;sketch=0;size=6;pointerEvents=1;points=[];fillColor=none;resizable=0;rotatable=0;perimeter=centerPerimeter;snapToPoint=1;fontSize=8;strokeColor=#FF0000;" parent="1" vertex="1">
                    <mxGeometry x="370" y="80" width="20" height="20" as="geometry"/>
                </mxCell>
                <mxCell id="2" value="$$O(kn\log n)$$" style="text;html=1;align=center;verticalAlign=middle;resizable=0;points=[];autosize=1;strokeColor=none;fillColor=none;fontColor=#FF0000;" parent="1" vertex="1">
                    <mxGeometry x="300" y="60" width="110" height="30" as="geometry"/>
                </mxCell>
                <mxCell id="4" value="2-Choices :" style="text;html=1;align=center;verticalAlign=middle;resizable=0;points=[];autosize=1;strokeColor=none;fillColor=none;fontColor=#FF0000;" parent="1" vertex="1">
                    <mxGeometry x="246" y="59" width="80" height="30" as="geometry"/>
                </mxCell>
                <mxCell id="8" value="" style="endArrow=none;html=1;rounded=0;fillColor=#f8cecc;strokeColor=#0000FF;" parent="1" target="9" edge="1">
                    <mxGeometry width="50" height="50" relative="1" as="geometry">
                        <mxPoint x="120" y="323" as="sourcePoint"/>
                        <mxPoint x="210" y="233" as="targetPoint"/>
                    </mxGeometry>
                </mxCell>
                <mxCell id="11" style="edgeStyle=none;html=1;strokeColor=#0000FF;fontColor=#0000FF;endArrow=none;endFill=0;" parent="1" source="9" edge="1">
                    <mxGeometry relative="1" as="geometry">
                        <mxPoint x="399.9999999999999" y="200" as="targetPoint"/>
                    </mxGeometry>
                </mxCell>
                <mxCell id="9" value="" style="shape=waypoint;sketch=0;size=6;pointerEvents=1;points=[];fillColor=none;resizable=0;rotatable=0;perimeter=centerPerimeter;snapToPoint=1;fontSize=8;strokeColor=#0000FF;" parent="1" vertex="1">
                    <mxGeometry x="250" y="190" width="20" height="20" as="geometry"/>
                </mxCell>
                <mxCell id="12" value="$$\sqrt{n}$$" style="text;html=1;align=center;verticalAlign=middle;resizable=0;points=[];autosize=1;strokeColor=none;fillColor=none;fontSize=17;" parent="1" vertex="1">
                    <mxGeometry x="195" y="320" width="120" height="30" as="geometry"/>
                </mxCell>
                <mxCell id="14" value="$$n^{1.5}$$" style="text;html=1;align=center;verticalAlign=middle;resizable=0;points=[];autosize=1;strokeColor=none;fillColor=none;fontSize=17;" parent="1" vertex="1">
                    <mxGeometry x="41" y="185" width="110" height="30" as="geometry"/>
                </mxCell>
                <mxCell id="15" value="$$\widetilde{O}(\min(kn,n^{3/2})$$" style="text;html=1;align=center;verticalAlign=middle;resizable=0;points=[];autosize=1;strokeColor=none;fillColor=none;fontColor=#0000FF;" vertex="1" parent="1">
                    <mxGeometry x="219" y="240" width="210" height="30" as="geometry"/>
                </mxCell>
                <mxCell id="16" value="3-Majority :" style="text;html=1;align=center;verticalAlign=middle;resizable=0;points=[];autosize=1;strokeColor=none;fillColor=none;fontColor=#0000FF;" vertex="1" parent="1">
                    <mxGeometry x="202" y="240" width="80" height="30" as="geometry"/>
                </mxCell>
            </root>
        </mxGraphModel>
    </diagram>
</mxfile>